<svg width="25" height="26" viewBox="0 0 25 26" fill="none" xmlns="http://www.w3.org/2000/svg">
<path fill-rule="evenodd" clip-rule="evenodd" d="M7.8125 0.633987H17.1875C21.5016 0.633987 25 4.13242 25 8.44649V17.8215C25 22.1355 21.5016 25.634 17.1875 25.634H7.8125C3.49844 25.634 0 22.1355 0 17.8215V8.44649C0 4.13242 3.49844 0.633987 7.8125 0.633987ZM17.1875 23.29C20.2031 23.29 22.6563 20.8369 22.6563 17.8212V8.44624C22.6563 5.43062 20.2031 2.97749 17.1875 2.97749H7.8125C4.79688 2.97749 2.34375 5.43062 2.34375 8.44624V17.8212C2.34375 20.8369 4.79688 23.29 7.8125 23.29H17.1875Z" fill="white"/>
<path fill-rule="evenodd" clip-rule="evenodd" d="M6.25 13.1342C6.25 9.68267 9.04844 6.88423 12.5 6.88423C15.9516 6.88423 18.75 9.68267 18.75 13.1342C18.75 16.5858 15.9516 19.3842 12.5 19.3842C9.04844 19.3842 6.25 16.5858 6.25 13.1342ZM8.59375 13.134C8.59375 15.2871 10.3469 17.0402 12.5 17.0402C14.6531 17.0402 16.4063 15.2871 16.4063 13.134C16.4063 10.9793 14.6531 9.22774 12.5 9.22774C10.3469 9.22774 8.59375 10.9793 8.59375 13.134Z" fill="white"/>
<circle cx="19.2195" cy="6.41577" r="0.832813" fill="white"/>
</svg>
