<svg width="155" height="48" viewBox="0 0 155 48" fill="none" xmlns="http://www.w3.org/2000/svg">
<path d="M52.9944 29.7517C49.0653 29.7517 46.8097 27.5931 46.8097 23.7852H49.5989C49.5989 25.9923 50.8601 27.3263 52.9702 27.3263C54.8135 27.3263 55.8321 26.4774 55.8321 24.9494C55.8321 23.6639 55.2258 23.0091 53.3097 22.2329L50.5448 21.1173C48.4104 20.2926 47.2947 18.7646 47.2947 16.606C47.2947 13.8411 49.5261 11.9493 52.7276 11.9493C56.0989 11.9493 58.3303 14.0593 58.3303 17.2609H55.5411C55.5411 15.3933 54.5224 14.3261 52.6306 14.3261C51.0298 14.3261 50.1082 15.1508 50.1082 16.4362C50.1082 17.6004 50.9328 18.3766 52.9217 19.1769L55.4198 20.1956C57.5542 21.0687 58.6213 22.5725 58.6213 24.8766C58.6213 27.7871 56.3657 29.7517 52.9944 29.7517ZM64.1696 29.6304C60.5315 29.6304 58.6155 27.011 58.6155 23.6882C58.6155 20.3654 60.7256 17.746 64.2424 17.746C65.7461 17.746 67.1044 18.4251 67.8077 19.565V18.037H70.4272V29.3394H67.8077V27.8114C67.1044 28.9513 65.5521 29.6304 64.1696 29.6304ZM64.5577 27.2778C66.8133 27.2778 67.9047 25.6285 67.9047 23.6882C67.9047 21.7479 66.8133 20.0986 64.5577 20.0986C62.4961 20.0986 61.2591 21.6266 61.2591 23.6882C61.2591 25.7498 62.4961 27.2778 64.5577 27.2778ZM74.7637 29.3394H72.12V18.037H74.7637V19.6135C75.4671 18.4008 76.7768 17.746 78.4503 17.746C81.1667 17.746 82.5735 19.274 82.5735 22.2329V29.3394H79.9298V23.4456C79.9298 21.0445 79.2992 20.0016 77.4559 20.0016C75.7338 20.0016 74.7637 21.1415 74.7637 23.1303V29.3394ZM88.9458 27.108C89.3581 27.108 90.013 27.0595 90.2798 27.011V29.3394C89.8675 29.4121 89.0913 29.4849 88.3152 29.4849C87.0298 29.4849 84.6529 29.3151 84.6529 25.5072V20.2441H82.7368V18.037H84.6529V14.6172H87.2965V18.037H89.8917V20.2441H87.2965V24.9009C87.2965 26.8654 87.9029 27.108 88.9458 27.108ZM96.0117 29.6304C92.2766 29.6304 90.0452 27.011 90.0452 23.6882C90.0452 20.3654 92.2766 17.746 96.0117 17.746C99.7468 17.746 101.978 20.3654 101.978 23.6882C101.978 27.011 99.7468 29.6304 96.0117 29.6304ZM96.0117 27.2778C98.146 27.2778 99.3345 25.7498 99.3345 23.6882C99.3345 21.6266 98.146 20.0986 96.0117 20.0986C93.8773 20.0986 92.6889 21.6266 92.6889 23.6882C92.6889 25.7498 93.8773 27.2778 96.0117 27.2778ZM105.459 29.3394H102.815V12.3616H105.459V29.3394ZM112.275 29.6304C108.54 29.6304 106.309 27.011 106.309 23.6882C106.309 20.3654 108.54 17.746 112.275 17.746C116.01 17.746 118.242 20.3654 118.242 23.6882C118.242 27.011 116.01 29.6304 112.275 29.6304ZM112.275 27.2778C114.409 27.2778 115.598 25.7498 115.598 23.6882C115.598 21.6266 114.409 20.0986 112.275 20.0986C110.141 20.0986 108.952 21.6266 108.952 23.6882C108.952 25.7498 110.141 27.2778 112.275 27.2778ZM124.094 29.6304C120.577 29.6304 118.467 27.205 118.467 23.6882C118.467 20.1714 120.577 17.746 124.094 17.746C127.247 17.746 129.211 19.468 129.454 22.0632H126.81C126.519 20.7777 125.695 20.0986 124.094 20.0986C122.226 20.0986 121.111 21.3841 121.111 23.6882C121.111 25.9923 122.226 27.2778 124.094 27.2778C125.695 27.2778 126.519 26.6229 126.81 25.4345H129.454C129.211 27.9569 127.247 29.6304 124.094 29.6304ZM135.668 29.6304C131.933 29.6304 129.701 27.011 129.701 23.6882C129.701 20.3654 131.933 17.746 135.668 17.746C139.403 17.746 141.634 20.3654 141.634 23.6882C141.634 27.011 139.403 29.6304 135.668 29.6304ZM135.668 27.2778C137.802 27.2778 138.991 25.7498 138.991 23.6882C138.991 21.6266 137.802 20.0986 135.668 20.0986C133.534 20.0986 132.345 21.6266 132.345 23.6882C132.345 25.7498 133.534 27.2778 135.668 27.2778ZM145.115 29.3394H142.472V18.037H145.115V20.2199C145.528 18.6191 146.886 17.8915 148.123 17.8915C148.535 17.8915 148.875 17.9157 149.166 17.9885V20.4139C148.753 20.3654 148.535 20.3654 148.123 20.3654C146.255 20.3654 145.115 21.7721 145.115 24.343V29.3394ZM152.3 29.3394H149.656V12.3616H152.3V29.3394Z" fill="white"/>
<path d="M14.6068 10.6025L42.6381 7.1821L26.8197 23.9465L0.000966527 31.8226L14.6068 10.6025Z" fill="#D9D9D9"/>
<path d="M27.5591 14.2544L43.0687 35.9742L20.6411 30.6572L0.410795 11.3696L27.5591 14.2544Z" fill="#0099FF"/>
</svg>
