<svg width="358" height="1691" viewBox="0 0 358 1691" fill="none" xmlns="http://www.w3.org/2000/svg">
<mask id="mask0_2_3" style="mask-type:alpha" maskUnits="userSpaceOnUse" x="-1" y="-22" width="861" height="1713">
<rect x="860" y="-22" width="1713" height="860" transform="rotate(90 860 -22)" fill="#111111"/>
</mask>
<g mask="url(#mask0_2_3)">
<g style="mix-blend-mode:color-dodge" filter="url(#filter0_f_2_3)">
<path d="M307.061 802.828C289.583 881.781 330.798 980.856 399.118 1024.12C467.437 1067.38 536.99 1038.44 554.468 959.491L583.612 827.84C601.09 748.887 559.875 649.812 491.555 606.551C423.235 563.289 353.683 592.223 336.205 671.177L307.061 802.828Z" fill="url(#paint0_radial_2_3)"/>
</g>
<g style="mix-blend-mode:color-dodge" filter="url(#filter1_f_2_3)">
<path d="M230.31 817.779C205.152 931.423 264.477 1074.03 362.815 1136.3C461.153 1198.57 561.267 1156.92 586.424 1043.28L628.373 853.782C653.531 740.138 594.206 597.531 495.868 535.261C397.53 472.991 297.416 514.638 272.259 628.283L230.31 817.779Z" fill="url(#paint1_radial_2_3)"/>
</g>
<g opacity="0.9" filter="url(#filter2_f_2_3)">
<path d="M418.644 1048.26C358.057 998.909 326.293 897.972 347.696 822.814L376.084 723.133C397.488 647.976 463.955 627.06 524.542 676.415C585.129 725.77 616.893 826.708 595.489 901.865L567.101 1001.55C545.698 1076.7 479.231 1097.62 418.644 1048.26Z" fill="url(#paint2_radial_2_3)"/>
</g>
</g>
<defs>
<filter id="filter0_f_2_3" x="143.266" y="426.686" width="604.14" height="777.295" filterUnits="userSpaceOnUse" color-interpolation-filters="sRGB">
<feFlood flood-opacity="0" result="BackgroundImageFix"/>
<feBlend mode="normal" in="SourceGraphic" in2="BackgroundImageFix" result="shape"/>
<feGaussianBlur stdDeviation="79.89" result="effect1_foregroundBlur_2_3"/>
</filter>
<filter id="filter1_f_2_3" x="15.7512" y="297.572" width="827.181" height="1076.42" filterUnits="userSpaceOnUse" color-interpolation-filters="sRGB">
<feFlood flood-opacity="0" result="BackgroundImageFix"/>
<feBlend mode="normal" in="SourceGraphic" in2="BackgroundImageFix" result="shape"/>
<feGaussianBlur stdDeviation="104.39" result="effect1_foregroundBlur_2_3"/>
</filter>
<filter id="filter2_f_2_3" x="-153.59" y="155.067" width="1250.37" height="1414.55" filterUnits="userSpaceOnUse" color-interpolation-filters="sRGB">
<feFlood flood-opacity="0" result="BackgroundImageFix"/>
<feBlend mode="normal" in="SourceGraphic" in2="BackgroundImageFix" result="shape"/>
<feGaussianBlur stdDeviation="247.305" result="effect1_foregroundBlur_2_3"/>
</filter>
<radialGradient id="paint0_radial_2_3" cx="0" cy="0" r="1" gradientUnits="userSpaceOnUse" gradientTransform="translate(464.259 933.731) rotate(-106.59) scale(193.149 131.798)">
<stop stop-color="white"/>
<stop offset="1" stop-color="white" stop-opacity="0"/>
</radialGradient>
<radialGradient id="paint1_radial_2_3" cx="0" cy="0" r="1" gradientUnits="userSpaceOnUse" gradientTransform="translate(368.099 748.959) rotate(-59.1251) scale(248.982 219.796)">
<stop stop-color="#0099FF"/>
<stop offset="1" stop-color="#004ADA"/>
</radialGradient>
<radialGradient id="paint2_radial_2_3" cx="0" cy="0" r="1" gradientUnits="userSpaceOnUse" gradientTransform="translate(446.184 942.551) rotate(38.412) scale(612.585 777.546)">
<stop/>
<stop offset="1" stop-color="#091520" stop-opacity="0"/>
</radialGradient>
</defs>
</svg>
