<svg width="387" height="1718" viewBox="0 0 387 1718" fill="none" xmlns="http://www.w3.org/2000/svg">
<mask id="mask0_2_9" style="mask-type:alpha" maskUnits="userSpaceOnUse" x="-474" y="0" width="861" height="1718">
<rect x="387" y="6.10352e-05" width="1718" height="860" transform="rotate(90 387 6.10352e-05)" fill="#111111"/>
</mask>
<g mask="url(#mask0_2_9)">
<g style="mix-blend-mode:color-dodge" filter="url(#filter0_f_2_9)">
<path d="M-166.001 827.514C-183.445 906.544 -142.202 1005.78 -73.8823 1049.17C-5.56269 1092.56 63.9625 1063.66 81.4066 984.635L110.673 852.043C128.117 773.013 86.8745 673.773 18.5549 630.386C-49.7647 586.998 -119.29 615.892 -136.734 694.922L-166.001 827.514Z" fill="url(#paint0_radial_2_9)"/>
</g>
<g style="mix-blend-mode:color-dodge" filter="url(#filter1_f_2_9)">
<path d="M-242.779 842.631C-267.887 956.386 -208.523 1099.23 -110.185 1161.68C-11.8466 1224.13 88.227 1182.54 113.336 1068.79L155.462 877.938C180.571 764.183 121.206 621.339 22.8679 558.888C-75.4704 496.436 -175.544 538.026 -200.653 651.781L-242.779 842.631Z" fill="url(#paint1_radial_2_9)"/>
</g>
<g opacity="0.9" filter="url(#filter2_f_2_9)">
<path d="M-54.3561 1073.39C-114.943 1023.89 -146.734 922.751 -125.363 847.49L-96.8562 747.1C-75.4852 671.839 -9.045 650.955 51.542 700.454C112.129 749.953 143.92 851.092 122.549 926.353L94.0422 1026.74C72.6711 1102 6.23094 1122.89 -54.3561 1073.39Z" fill="url(#paint2_radial_2_9)"/>
</g>
</g>
<defs>
<filter id="filter0_f_2_9" x="-329.78" y="450.429" width="604.232" height="778.7" filterUnits="userSpaceOnUse" color-interpolation-filters="sRGB">
<feFlood flood-opacity="0" result="BackgroundImageFix"/>
<feBlend mode="normal" in="SourceGraphic" in2="BackgroundImageFix" result="shape"/>
<feGaussianBlur stdDeviation="79.89" result="effect1_foregroundBlur_2_9"/>
</filter>
<filter id="filter1_f_2_9" x="-457.315" y="321.065" width="827.314" height="1078.44" filterUnits="userSpaceOnUse" color-interpolation-filters="sRGB">
<feFlood flood-opacity="0" result="BackgroundImageFix"/>
<feBlend mode="normal" in="SourceGraphic" in2="BackgroundImageFix" result="shape"/>
<feGaussianBlur stdDeviation="104.39" result="effect1_foregroundBlur_2_9"/>
</filter>
<filter id="filter2_f_2_9" x="-626.629" y="178.994" width="1250.44" height="1415.86" filterUnits="userSpaceOnUse" color-interpolation-filters="sRGB">
<feFlood flood-opacity="0" result="BackgroundImageFix"/>
<feBlend mode="normal" in="SourceGraphic" in2="BackgroundImageFix" result="shape"/>
<feGaussianBlur stdDeviation="247.305" result="effect1_foregroundBlur_2_9"/>
</filter>
<radialGradient id="paint0_radial_2_9" cx="0" cy="0" r="1" gradientUnits="userSpaceOnUse" gradientTransform="translate(-8.7411 958.521) rotate(-106.545) scale(193.667 131.829)">
<stop stop-color="white"/>
<stop offset="1" stop-color="white" stop-opacity="0"/>
</radialGradient>
<radialGradient id="paint1_radial_2_9" cx="0" cy="0" r="1" gradientUnits="userSpaceOnUse" gradientTransform="translate(-104.901 773.21) rotate(-59.1986) scale(249.517 219.964)">
<stop stop-color="#0099FF"/>
<stop offset="1" stop-color="#004ADA"/>
</radialGradient>
<radialGradient id="paint2_radial_2_9" cx="0" cy="0" r="1" gradientUnits="userSpaceOnUse" gradientTransform="translate(-26.8157 967.367) rotate(38.4933) scale(613.276 778.937)">
<stop/>
<stop offset="1" stop-color="#091520" stop-opacity="0"/>
</radialGradient>
</defs>
</svg>
